<svg xmlns="http://www.w3.org/2000/svg" xmlns:xlink="http://www.w3.org/1999/xlink" width="500" zoomAndPan="magnify" viewBox="0 0 375 374.999991" height="500" preserveAspectRatio="xMidYMid meet" version="1.0"><defs><filter x="0%" y="0%" width="100%" height="100%" id="2ca1562974"><feColorMatrix values="0 0 0 0 1 0 0 0 0 1 0 0 0 0 1 0 0 0 1 0" color-interpolation-filters="sRGB"/></filter><g/><clipPath id="20e5cf3dcf"><path d="M 133.410156 114.207031 L 241.410156 114.207031 L 241.410156 216.207031 L 133.410156 216.207031 Z M 133.410156 114.207031 " clip-rule="nonzero"/></clipPath><clipPath id="eb05b03d32"><path d="M 133.410156 114.207031 L 241.410156 114.207031 L 241.410156 216.207031 L 133.410156 216.207031 Z M 133.410156 114.207031 " clip-rule="nonzero"/></clipPath><mask id="c628631ec7"><g filter="url(#2ca1562974)"><rect x="-37.5" width="450" fill="#000000" y="-37.499999" height="449.999989" fill-opacity="0.2863"/></g></mask><clipPath id="f4fe5dde7a"><path d="M 0.410156 0.207031 L 108.410156 0.207031 L 108.410156 37 L 0.410156 37 Z M 0.410156 0.207031 " clip-rule="nonzero"/></clipPath><clipPath id="4f4343f82d"><path d="M 28 60 L 55 60 L 55 102.207031 L 28 102.207031 Z M 28 60 " clip-rule="nonzero"/></clipPath><clipPath id="e5107b3412"><rect x="0" width="109" y="0" height="103"/></clipPath></defs><g clip-path="url(#20e5cf3dcf)"><path fill="#c1ff72" d="M 240.238281 159.175781 L 206.65625 135.429688 C 204.875 134.183594 202.480469 134.339844 200.886719 135.832031 L 196.222656 140.222656 L 194.402344 138.273438 C 187.394531 130.742188 175.59375 130.355469 168.09375 137.414062 C 160.59375 144.457031 160.210938 156.3125 167.238281 163.847656 L 169.054688 165.796875 L 164.386719 170.1875 C 162.796875 171.679688 162.480469 174.085938 163.601562 175.945312 L 187.917969 216.023438 C 187.742188 216.074219 187.585938 216.144531 187.410156 216.199219 C 178.546875 213.195312 169.667969 208.191406 161.660156 201.5 C 157.414062 197.953125 153.410156 193.929688 149.773438 189.46875 C 143.8125 182.164062 139.476562 174.472656 136.765625 166.882812 C 129.738281 147.214844 133.65625 128.371094 148.652344 119.359375 C 159.246094 113.003906 173.304688 112.792969 187.394531 117.570312 C 201.484375 112.792969 215.539062 113.003906 226.132812 119.359375 C 239.171875 127.15625 243.839844 142.402344 240.238281 159.175781 Z M 240.238281 159.175781 " fill-opacity="1" fill-rule="nonzero"/></g><path fill="#c1ff72" d="M 171.378906 140.925781 C 165.820312 146.160156 165.542969 154.960938 170.734375 160.527344 L 172.550781 162.476562 L 192.707031 143.507812 L 190.890625 141.558594 C 185.699219 135.992188 176.9375 135.691406 171.378906 140.925781 Z M 171.378906 140.925781 " fill-opacity="1" fill-rule="nonzero"/><g clip-path="url(#eb05b03d32)"><g mask="url(#c628631ec7)"><g transform="matrix(1, 0, 0, 1, 133, 114)"><g clip-path="url(#e5107b3412)"><path fill="#000000" d="M 34.238281 52.988281 L 34.480469 53.253906 L 36.054688 51.777344 L 34.238281 49.828125 C 31.265625 46.648438 29.621094 42.679688 29.289062 38.640625 C 28.851562 43.734375 30.496094 48.984375 34.238281 52.988281 Z M 34.238281 52.988281 " fill-opacity="1" fill-rule="nonzero"/><g clip-path="url(#f4fe5dde7a)"><path fill="#000000" d="M 15.671875 8.503906 C 26.265625 2.148438 40.320312 1.9375 54.410156 6.710938 C 68.5 1.9375 82.554688 2.148438 93.148438 8.503906 C 102.902344 14.351562 107.972656 24.378906 108.394531 36.09375 C 108.847656 23.046875 103.777344 11.71875 93.148438 5.34375 C 82.574219 -1.015625 68.5 -1.242188 54.410156 3.550781 C 40.320312 -1.226562 26.265625 -1.015625 15.671875 5.34375 C 5.042969 11.71875 -0.0078125 23.046875 0.445312 36.09375 C 0.847656 24.398438 5.917969 14.351562 15.671875 8.503906 Z M 15.671875 8.503906 " fill-opacity="1" fill-rule="nonzero"/></g><g clip-path="url(#4f4343f82d)"><path fill="#000000" d="M 44.148438 84.269531 L 30.601562 61.945312 C 30.445312 61.683594 30.320312 61.417969 30.214844 61.15625 L 29.953125 60.085938 L 28.660156 87.5 C 36.667969 94.191406 45.546875 99.195312 54.410156 102.199219 C 54.585938 102.144531 54.742188 102.074219 54.917969 102.023438 Z M 44.148438 84.269531 " fill-opacity="1" fill-rule="nonzero"/></g></g></g></g></g><g fill="#000000" fill-opacity="1"><g transform="translate(93.730566, 240.993222)"><g><path d="M 9.328125 0.21875 C 20.148438 0.21875 20.148438 -15.992188 9.328125 -15.992188 C -1.496094 -15.992188 -1.496094 0.21875 9.328125 0.21875 Z M 9.328125 -3.035156 C 3.035156 -3.035156 3.035156 -12.757812 9.328125 -12.757812 C 15.617188 -12.757812 15.617188 -3.035156 9.328125 -3.035156 Z M 9.328125 -3.035156 "/></g></g></g><g fill="#000000" fill-opacity="1"><g transform="translate(111.987249, 240.993222)"><g><path d="M 4.90625 -8.558594 L 12.867188 0.328125 L 13.703125 0.328125 L 13.703125 -15.707031 L 10.535156 -15.707031 L 10.535156 -6.820312 L 2.597656 -16.058594 L 1.761719 -16.058594 L 1.761719 0 L 4.90625 0 Z M 4.90625 -8.558594 "/></g></g></g><g fill="#000000" fill-opacity="1"><g transform="translate(127.098489, 240.993222)"><g><path d="M 1.761719 -15.726562 L 1.761719 0 L 9.898438 0 L 9.898438 -3.144531 L 4.90625 -3.144531 L 4.90625 -15.726562 Z M 1.761719 -15.726562 "/></g></g></g><g fill="#000000" fill-opacity="1"><g transform="translate(137.568556, 240.993222)"><g><path d="M 4.90625 0 L 4.90625 -15.726562 L 1.761719 -15.726562 L 1.761719 0 Z M 4.90625 0 "/></g></g></g><g fill="#000000" fill-opacity="1"><g transform="translate(143.88136, 240.993222)"><g><path d="M 4.90625 -8.558594 L 12.867188 0.328125 L 13.703125 0.328125 L 13.703125 -15.707031 L 10.535156 -15.707031 L 10.535156 -6.820312 L 2.597656 -16.058594 L 1.761719 -16.058594 L 1.761719 0 L 4.90625 0 Z M 4.90625 -8.558594 "/></g></g></g><g fill="#000000" fill-opacity="1"><g transform="translate(158.992601, 240.993222)"><g><path d="M 9.898438 0 L 9.898438 -3.144531 L 4.90625 -3.144531 L 4.90625 -6.292969 L 9.039062 -6.292969 L 9.039062 -9.4375 L 4.90625 -9.4375 L 4.90625 -12.582031 L 9.636719 -12.582031 L 9.636719 -15.726562 L 1.761719 -15.726562 L 1.761719 0 Z M 9.898438 0 "/></g></g></g><g fill="#000000" fill-opacity="1"><g transform="translate(169.704631, 240.993222)"><g/></g></g><g fill="#000000" fill-opacity="1"><g transform="translate(175.577515, 240.993222)"><g><path d="M 1.035156 -1.011719 C 3.167969 0.0898438 5.125 0.199219 6.003906 0.132812 C 8.953125 -0.0234375 10.757812 -2.023438 10.757812 -4.640625 C 10.757812 -7.148438 8.644531 -8.558594 6.203125 -9.457031 C 5.300781 -9.765625 4.53125 -10.164062 4.445312 -11.042969 C 4.378906 -11.921875 4.882812 -12.738281 6.003906 -12.800781 C 6.488281 -12.824219 7.480469 -12.847656 9.21875 -12.144531 L 9.613281 -15.179688 C 7.589844 -15.882812 6.511719 -15.882812 5.699219 -15.839844 C 3.078125 -15.707031 1.253906 -13.683594 1.253906 -11.042969 C 1.253906 -8.402344 3.453125 -7.148438 5.917969 -6.246094 C 6.796875 -5.9375 7.480469 -5.542969 7.546875 -4.640625 C 7.632812 -3.785156 6.839844 -3.125 5.917969 -3.058594 C 5.191406 -2.992188 3.234375 -3.035156 1.429688 -4.3125 Z M 1.035156 -1.011719 "/></g></g></g><g fill="#000000" fill-opacity="1"><g transform="translate(186.839445, 240.993222)"><g><path d="M 12.757812 0 L 12.757812 -15.726562 L 9.613281 -15.726562 L 9.613281 -9.4375 L 4.90625 -9.4375 L 4.90625 -15.726562 L 1.761719 -15.726562 L 1.761719 0 L 4.90625 0 L 4.90625 -6.292969 L 9.613281 -6.292969 L 9.613281 0 Z M 12.757812 0 "/></g></g></g><g fill="#000000" fill-opacity="1"><g transform="translate(201.004855, 240.993222)"><g><path d="M 9.328125 0.21875 C 20.148438 0.21875 20.148438 -15.992188 9.328125 -15.992188 C -1.496094 -15.992188 -1.496094 0.21875 9.328125 0.21875 Z M 9.328125 -3.035156 C 3.035156 -3.035156 3.035156 -12.757812 9.328125 -12.757812 C 15.617188 -12.757812 15.617188 -3.035156 9.328125 -3.035156 Z M 9.328125 -3.035156 "/></g></g></g><g fill="#000000" fill-opacity="1"><g transform="translate(219.261533, 240.993222)"><g><path d="M 4.90625 0 L 4.90625 -6.003906 L 7.941406 -6.003906 C 14.035156 -6.003906 14.054688 -15.707031 7.941406 -15.707031 L 1.761719 -15.707031 L 1.761719 0 Z M 4.90625 -9.0625 L 4.90625 -12.582031 L 7.675781 -12.582031 C 9.789062 -12.582031 9.789062 -9.0625 7.675781 -9.0625 Z M 4.90625 -9.0625 "/></g></g></g><g fill="#000000" fill-opacity="1"><g transform="translate(232.151161, 240.993222)"><g><path d="M 4.90625 0 L 4.90625 -6.003906 L 7.941406 -6.003906 C 14.035156 -6.003906 14.054688 -15.707031 7.941406 -15.707031 L 1.761719 -15.707031 L 1.761719 0 Z M 4.90625 -9.0625 L 4.90625 -12.582031 L 7.675781 -12.582031 C 9.789062 -12.582031 9.789062 -9.0625 7.675781 -9.0625 Z M 4.90625 -9.0625 "/></g></g></g><g fill="#000000" fill-opacity="1"><g transform="translate(245.04079, 240.993222)"><g><path d="M 4.90625 0 L 4.90625 -15.726562 L 1.761719 -15.726562 L 1.761719 0 Z M 4.90625 0 "/></g></g></g><g fill="#000000" fill-opacity="1"><g transform="translate(251.353591, 240.993222)"><g><path d="M 4.90625 -8.558594 L 12.867188 0.328125 L 13.703125 0.328125 L 13.703125 -15.707031 L 10.535156 -15.707031 L 10.535156 -6.820312 L 2.597656 -16.058594 L 1.761719 -16.058594 L 1.761719 0 L 4.90625 0 Z M 4.90625 -8.558594 "/></g></g></g><g fill="#000000" fill-opacity="1"><g transform="translate(266.464826, 240.993222)"><g><path d="M 13.109375 -0.96875 L 13.109375 -7.875 L 9.921875 -7.875 L 9.921875 -3.144531 C 9.636719 -3.101562 9.328125 -3.058594 9.039062 -3.058594 C 2.96875 -3.058594 2.683594 -12.449219 9.039062 -12.671875 C 10.710938 -12.714844 11.726562 -12.363281 12.339844 -12.097656 L 12.714844 -15.289062 C 12.429688 -15.375 10.910156 -15.925781 9.039062 -15.859375 C -1.871094 -15.464844 -1.34375 0.0898438 9.039062 0.0898438 C 10.535156 0.0898438 11.902344 -0.285156 13.109375 -0.96875 Z M 13.109375 -0.96875 "/></g></g></g><g fill="#545454" fill-opacity="1"><g transform="translate(134.384308, 257.293195)"><g><path d="M 0.640625 0 L 0.640625 -7.109375 L 3.125 -7.109375 C 3.988281 -7.109375 4.640625 -6.941406 5.078125 -6.609375 C 5.523438 -6.285156 5.75 -5.800781 5.75 -5.15625 C 5.75 -4.8125 5.660156 -4.503906 5.484375 -4.234375 C 5.304688 -3.972656 5.054688 -3.78125 4.734375 -3.65625 C 5.097656 -3.5625 5.382812 -3.375 5.59375 -3.09375 C 5.8125 -2.820312 5.921875 -2.488281 5.921875 -2.09375 C 5.921875 -1.40625 5.703125 -0.882812 5.265625 -0.53125 C 4.828125 -0.1875 4.207031 -0.0078125 3.40625 0 Z M 2.09375 -3.09375 L 2.09375 -1.171875 L 3.359375 -1.171875 C 3.703125 -1.171875 3.96875 -1.253906 4.15625 -1.421875 C 4.351562 -1.585938 4.453125 -1.816406 4.453125 -2.109375 C 4.453125 -2.753906 4.113281 -3.082031 3.4375 -3.09375 Z M 2.09375 -4.125 L 3.1875 -4.125 C 3.925781 -4.144531 4.296875 -4.441406 4.296875 -5.015625 C 4.296875 -5.335938 4.203125 -5.566406 4.015625 -5.703125 C 3.828125 -5.847656 3.53125 -5.921875 3.125 -5.921875 L 2.09375 -5.921875 Z M 2.09375 -4.125 "/></g></g></g><g fill="#545454" fill-opacity="1"><g transform="translate(144.263674, 257.293195)"><g><path d="M 4.90625 -3.078125 L 2.09375 -3.078125 L 2.09375 -1.171875 L 5.40625 -1.171875 L 5.40625 0 L 0.640625 0 L 0.640625 -7.109375 L 5.390625 -7.109375 L 5.390625 -5.921875 L 2.09375 -5.921875 L 2.09375 -4.234375 L 4.90625 -4.234375 Z M 4.90625 -3.078125 "/></g></g></g><g fill="#545454" fill-opacity="1"><g transform="translate(153.386493, 257.293195)"><g><path d="M 4.328125 -1.859375 C 4.328125 -2.140625 4.226562 -2.351562 4.03125 -2.5 C 3.832031 -2.644531 3.476562 -2.800781 2.96875 -2.96875 C 2.46875 -3.132812 2.066406 -3.296875 1.765625 -3.453125 C 0.960938 -3.890625 0.5625 -4.476562 0.5625 -5.21875 C 0.5625 -5.601562 0.664062 -5.945312 0.875 -6.25 C 1.09375 -6.550781 1.40625 -6.785156 1.8125 -6.953125 C 2.21875 -7.117188 2.671875 -7.203125 3.171875 -7.203125 C 3.679688 -7.203125 4.132812 -7.109375 4.53125 -6.921875 C 4.925781 -6.742188 5.234375 -6.488281 5.453125 -6.15625 C 5.679688 -5.820312 5.796875 -5.441406 5.796875 -5.015625 L 4.328125 -5.015625 C 4.328125 -5.335938 4.222656 -5.585938 4.015625 -5.765625 C 3.816406 -5.953125 3.53125 -6.046875 3.15625 -6.046875 C 2.800781 -6.046875 2.519531 -5.96875 2.3125 -5.8125 C 2.113281 -5.664062 2.015625 -5.46875 2.015625 -5.21875 C 2.015625 -4.988281 2.128906 -4.796875 2.359375 -4.640625 C 2.597656 -4.484375 2.945312 -4.332031 3.40625 -4.1875 C 4.238281 -3.9375 4.84375 -3.625 5.21875 -3.25 C 5.601562 -2.882812 5.796875 -2.425781 5.796875 -1.875 C 5.796875 -1.257812 5.5625 -0.773438 5.09375 -0.421875 C 4.625 -0.078125 4 0.09375 3.21875 0.09375 C 2.664062 0.09375 2.164062 -0.00390625 1.71875 -0.203125 C 1.269531 -0.398438 0.925781 -0.671875 0.6875 -1.015625 C 0.457031 -1.367188 0.34375 -1.773438 0.34375 -2.234375 L 1.8125 -2.234375 C 1.8125 -1.453125 2.28125 -1.0625 3.21875 -1.0625 C 3.5625 -1.0625 3.832031 -1.128906 4.03125 -1.265625 C 4.226562 -1.410156 4.328125 -1.609375 4.328125 -1.859375 Z M 4.328125 -1.859375 "/></g></g></g><g fill="#545454" fill-opacity="1"><g transform="translate(163.031575, 257.293195)"><g><path d="M 5.984375 -5.921875 L 3.8125 -5.921875 L 3.8125 0 L 2.34375 0 L 2.34375 -5.921875 L 0.203125 -5.921875 L 0.203125 -7.109375 L 5.984375 -7.109375 Z M 5.984375 -5.921875 "/></g></g></g><g fill="#545454" fill-opacity="1"><g transform="translate(172.715705, 257.293195)"><g/></g></g><g fill="#545454" fill-opacity="1"><g transform="translate(178.704984, 257.293195)"><g><path d="M 6.46875 -3.390625 C 6.46875 -2.722656 6.359375 -2.144531 6.140625 -1.65625 C 5.929688 -1.164062 5.632812 -0.773438 5.25 -0.484375 L 6.4375 0.4375 L 5.5 1.265625 L 3.984375 0.046875 C 3.804688 0.078125 3.628906 0.09375 3.453125 0.09375 C 2.859375 0.09375 2.328125 -0.046875 1.859375 -0.328125 C 1.398438 -0.609375 1.046875 -1.007812 0.796875 -1.53125 C 0.546875 -2.0625 0.414062 -2.671875 0.40625 -3.359375 L 0.40625 -3.703125 C 0.40625 -4.398438 0.53125 -5.015625 0.78125 -5.546875 C 1.039062 -6.085938 1.398438 -6.5 1.859375 -6.78125 C 2.316406 -7.0625 2.84375 -7.203125 3.4375 -7.203125 C 4.03125 -7.203125 4.554688 -7.0625 5.015625 -6.78125 C 5.472656 -6.5 5.828125 -6.085938 6.078125 -5.546875 C 6.335938 -5.015625 6.46875 -4.40625 6.46875 -3.71875 Z M 4.984375 -3.71875 C 4.984375 -4.457031 4.847656 -5.019531 4.578125 -5.40625 C 4.316406 -5.800781 3.9375 -6 3.4375 -6 C 2.945312 -6 2.566406 -5.804688 2.296875 -5.421875 C 2.035156 -5.035156 1.898438 -4.472656 1.890625 -3.734375 L 1.890625 -3.390625 C 1.890625 -2.671875 2.023438 -2.109375 2.296875 -1.703125 C 2.566406 -1.304688 2.953125 -1.109375 3.453125 -1.109375 C 3.941406 -1.109375 4.316406 -1.300781 4.578125 -1.6875 C 4.835938 -2.070312 4.972656 -2.632812 4.984375 -3.375 Z M 4.984375 -3.71875 "/></g></g></g><g fill="#545454" fill-opacity="1"><g transform="translate(189.106599, 257.293195)"><g><path d="M 6.015625 -7.109375 L 6.015625 -2.421875 C 6.015625 -1.648438 5.769531 -1.035156 5.28125 -0.578125 C 4.800781 -0.128906 4.140625 0.09375 3.296875 0.09375 C 2.460938 0.09375 1.800781 -0.125 1.3125 -0.5625 C 0.820312 -1 0.570312 -1.601562 0.5625 -2.375 L 0.5625 -7.109375 L 2.03125 -7.109375 L 2.03125 -2.421875 C 2.03125 -1.953125 2.140625 -1.609375 2.359375 -1.390625 C 2.585938 -1.179688 2.898438 -1.078125 3.296875 -1.078125 C 4.117188 -1.078125 4.535156 -1.507812 4.546875 -2.375 L 4.546875 -7.109375 Z M 6.015625 -7.109375 "/></g></g></g><g fill="#545454" fill-opacity="1"><g transform="translate(199.186073, 257.293195)"><g><path d="M 4.65625 -1.46875 L 2.078125 -1.46875 L 1.59375 0 L 0.03125 0 L 2.6875 -7.109375 L 4.03125 -7.109375 L 6.703125 0 L 5.140625 0 Z M 2.46875 -2.65625 L 4.25 -2.65625 L 3.359375 -5.3125 Z M 2.46875 -2.65625 "/></g></g></g><g fill="#545454" fill-opacity="1"><g transform="translate(209.411975, 257.293195)"><g><path d="M 2.09375 -1.171875 L 5.203125 -1.171875 L 5.203125 0 L 0.640625 0 L 0.640625 -7.109375 L 2.09375 -7.109375 Z M 2.09375 -1.171875 "/></g></g></g><g fill="#545454" fill-opacity="1"><g transform="translate(218.324919, 257.293195)"><g><path d="M 2.1875 0 L 0.734375 0 L 0.734375 -7.109375 L 2.1875 -7.109375 Z M 2.1875 0 "/></g></g></g><g fill="#545454" fill-opacity="1"><g transform="translate(224.73884, 257.293195)"><g><path d="M 5.984375 -5.921875 L 3.8125 -5.921875 L 3.8125 0 L 2.34375 0 L 2.34375 -5.921875 L 0.203125 -5.921875 L 0.203125 -7.109375 L 5.984375 -7.109375 Z M 5.984375 -5.921875 "/></g></g></g><g fill="#545454" fill-opacity="1"><g transform="translate(234.422967, 257.293195)"><g><path d="M 3.09375 -3.90625 L 4.5625 -7.109375 L 6.171875 -7.109375 L 3.828125 -2.578125 L 3.828125 0 L 2.34375 0 L 2.34375 -2.578125 L 0.015625 -7.109375 L 1.609375 -7.109375 Z M 3.09375 -3.90625 "/></g></g></g></svg>